{
  "accessors": [
    {
      "bufferView": 2,
      "componentType": 5126,
      "count": 65532,
      "max": [
        1.565503716468811,
        -10.930904388427734,
        1.7483106851577759
      ],
      "min": [
        -1.7821757793426514,
        -16.8642578125,
        -0.30198177695274353
      ],
      "type": "VEC3"
    },
    {
      "bufferView": 2,
      "byteOffset": 786384,
      "componentType": 5126,
      "count": 65532,
      "max": [
        0.9999939203262329,
        0.9999357461929321,
        0.9999805092811584
      ],
      "min": [
        -0.9999473094940186,
        -0.9991366863250732,
        -0.9999908804893494
      ],
      "type": "VEC3"
    },
    {
      "bufferView": 1,
      "componentType": 5126,
      "count": 65532,
      "max": [
        0.9998130202293396,
        0.9078369736671448
      ],
      "min": [
        0.00012199999764561653,
        0.015035999938845634
      ],
      "type": "VEC2"
    },
    {
      "bufferView": 0,
      "componentType": 5125,
      "count": 295569,
      "type": "SCALAR"
    },
    {
      "bufferView": 2,
      "byteOffset": 1572768,
      "componentType": 5126,
      "count": 65532,
      "max": [
        1.7030701637268066,
        -9.73437786102295,
        2.0581982135772705
      ],
      "min": [
        -1.787173867225647,
        -17.157556533813477,
        -0.29975438117980957
      ],
      "type": "VEC3"
    },
    {
      "bufferView": 2,
      "byteOffset": 2359152,
      "componentType": 5126,
      "count": 65532,
      "max": [
        0.9999833106994629,
        0.9999279975891113,
        0.9999765753746033
      ],
      "min": [
        -0.9999882578849792,
        -0.9999560713768005,
        -0.9999995231628418
      ],
      "type": "VEC3"
    },
    {
      "bufferView": 1,
      "byteOffset": 524256,
      "componentType": 5126,
      "count": 65532,
      "max": [
        0.999796986579895,
        0.9080809950828552
      ],
      "min": [
        0.00012199999764561653,
        0.0002479999966453761
      ],
      "type": "VEC2"
    },
    {
      "bufferView": 0,
      "byteOffset": 1182276,
      "componentType": 5125,
      "count": 284673,
      "type": "SCALAR"
    },
    {
      "bufferView": 2,
      "byteOffset": 3145536,
      "componentType": 5126,
      "count": 65532,
      "max": [
        1.9373708963394165,
        -8.912724494934082,
        3.2243332862854004
      ],
      "min": [
        -1.7810735702514648,
        -18.99712371826172,
        -0.4236549139022827
      ],
      "type": "VEC3"
    },
    {
      "bufferView": 2,
      "byteOffset": 3931920,
      "componentType": 5126,
      "count": 65532,
      "max": [
        0.9999989867210388,
        0.9999797940254211,
        0.9999531507492065
      ],
      "min": [
        -0.999999463558197,
        -0.9999998807907104,
        -0.9999999403953552
      ],
      "type": "VEC3"
    },
    {
      "bufferView": 1,
      "byteOffset": 1048512,
      "componentType": 5126,
      "count": 65532,
      "max": [
        0.9998120069503784,
        0.9080809950828552
      ],
      "min": [
        0.00012199999764561653,
        0.00039400000241585076
      ],
      "type": "VEC2"
    },
    {
      "bufferView": 0,
      "byteOffset": 2320968,
      "componentType": 5125,
      "count": 276231,
      "type": "SCALAR"
    },
    {
      "bufferView": 2,
      "byteOffset": 4718304,
      "componentType": 5126,
      "count": 65532,
      "max": [
        1.901872158050537,
        -8.912651062011719,
        3.2411117553710938
      ],
      "min": [
        -1.780958890914917,
        -17.880874633789063,
        -0.42912980914115906
      ],
      "type": "VEC3"
    },
    {
      "bufferView": 2,
      "byteOffset": 5504688,
      "componentType": 5126,
      "count": 65532,
      "max": [
        1.0,
        1.0,
        0.9999999403953552
      ],
      "min": [
        -0.9999990463256836,
        -1.0,
        -0.9999998807907104
      ],
      "type": "VEC3"
    },
    {
      "bufferView": 1,
      "byteOffset": 1572768,
      "componentType": 5126,
      "count": 65532,
      "max": [
        0.9998109936714172,
        0.9080809950828552
      ],
      "min": [
        0.00012199999764561653,
        0.0003809999907389283
      ],
      "type": "VEC2"
    },
    {
      "bufferView": 0,
      "byteOffset": 3425892,
      "componentType": 5125,
      "count": 286851,
      "type": "SCALAR"
    },
    {
      "bufferView": 2,
      "byteOffset": 6291072,
      "componentType": 5126,
      "count": 65532,
      "max": [
        1.9618507623672485,
        -8.912652969360352,
        3.2367308139801025
      ],
      "min": [
        -1.781483769416809,
        -17.915050506591797,
        -0.5583335757255554
      ],
      "type": "VEC3"
    },
    {
      "bufferView": 2,
      "byteOffset": 7077456,
      "componentType": 5126,
      "count": 65532,
      "max": [
        0.9999995231628418,
        1.0,
        1.0
      ],
      "min": [
        -0.9999988079071045,
        -0.9999998807907104,
        -0.9999992251396179
      ],
      "type": "VEC3"
    },
    {
      "bufferView": 1,
      "byteOffset": 2097024,
      "componentType": 5126,
      "count": 65532,
      "max": [
        0.9997760057449341,
        0.9080809950828552
      ],
      "min": [
        0.00012199999764561653,
        0.00037900000461377203
      ],
      "type": "VEC2"
    },
    {
      "bufferView": 0,
      "byteOffset": 4573296,
      "componentType": 5125,
      "count": 251112,
      "type": "SCALAR"
    },
    {
      "bufferView": 2,
      "byteOffset": 7863840,
      "componentType": 5126,
      "count": 17378,
      "max": [
        1.744332194328308,
        -9.242257118225098,
        2.1500444412231445
      ],
      "min": [
        -1.6462607383728027,
        -17.897260665893555,
        -0.4015026390552521
      ],
      "type": "VEC3"
    },
    {
      "bufferView": 2,
      "byteOffset": 8072376,
      "componentType": 5126,
      "count": 17378,
      "max": [
        0.9999347925186157,
        0.998134434223175,
        0.9999784827232361
      ],
      "min": [
        -0.9997731447219849,
        -0.9999988079071045,
        -0.9999732375144958
      ],
      "type": "VEC3"
    },
    {
      "bufferView": 1,
      "byteOffset": 2621280,
      "componentType": 5126,
      "count": 17378,
      "max": [
        0.9997609853744507,
        0.9080809950828552
      ],
      "min": [
        0.00012199999764561653,
        0.005121000111103058
      ],
      "type": "VEC2"
    },
    {
      "bufferView": 0,
      "byteOffset": 5577744,
      "componentType": 5125,
      "count": 59913,
      "type": "SCALAR"
    },
    {
      "bufferView": 2,
      "byteOffset": 8280912,
      "componentType": 5126,
      "count": 1113,
      "max": [
        1.901872158050537,
        -8.912651062011719,
        3.2374720573425293
      ],
      "min": [
        -1.7803113460540771,
        -8.941003799438477,
        -0.4182164669036865
      ],
      "type": "VEC3"
    },
    {
      "bufferView": 2,
      "byteOffset": 8294268,
      "componentType": 5126,
      "count": 1113,
      "max": [
        0.9999917149543762,
        1.0,
        0.9999859929084778
      ],
      "min": [
        -0.9999060034751892,
        -0.16646957397460938,
        -0.999977707862854
      ],
      "type": "VEC3"
    },
    {
      "bufferView": 1,
      "byteOffset": 2760304,
      "componentType": 5126,
      "count": 1113,
      "max": [
        0.0,
        0.0
      ],
      "min": [
        0.0,
        0.0
      ],
      "type": "VEC2"
    },
    {
      "bufferView": 0,
      "byteOffset": 5817396,
      "componentType": 5125,
      "count": 3333,
      "type": "SCALAR"
    }
  ],
  "asset": {
    "extras": {
      "author": "noe-3d.at (https://sketchfab.com/www.noe-3d.at)",
      "license": "CC-BY-NC-4.0 (http://creativecommons.org/licenses/by-nc/4.0/)",
      "source": "https://sketchfab.com/3d-models/flora-1c5a8442ac3344ac9c37019f4b10ea01",
      "title": "Flora"
    },
    "generator": "Sketchfab-12.64.0",
    "version": "2.0"
  },
  "bufferViews": [
    {
      "buffer": 0,
      "byteLength": 5830728,
      "name": "floatBufferViews",
      "target": 34963
    },
    {
      "buffer": 0,
      "byteLength": 2769208,
      "byteOffset": 5830728,
      "byteStride": 8,
      "name": "floatBufferViews",
      "target": 34962
    },
    {
      "buffer": 0,
      "byteLength": 8307624,
      "byteOffset": 8599936,
      "byteStride": 12,
      "name": "floatBufferViews",
      "target": 34962
    }
  ],
  "buffers": [
    {
      "byteLength": 16907560,
      "uri": "scene.bin"
    }
  ],
  "images": [
    {
      "uri": "textures/Flora_O_Material_u1_v1_baseColor.png"
    }
  ],
  "materials": [
    {
      "doubleSided": true,
      "name": "Flora_O_Material_u1_v1",
      "pbrMetallicRoughness": {
        "baseColorTexture": {
          "index": 0
        },
        "metallicFactor": 0.0
      }
    }
  ],
  "meshes": [
    {
      "name": "Object_0",
      "primitives": [
        {
          "attributes": {
            "NORMAL": 1,
            "POSITION": 0,
            "TEXCOORD_0": 2
          },
          "indices": 3,
          "material": 0,
          "mode": 4
        }
      ]
    },
    {
      "name": "Object_1",
      "primitives": [
        {
          "attributes": {
            "NORMAL": 5,
            "POSITION": 4,
            "TEXCOORD_0": 6
          },
          "indices": 7,
          "material": 0,
          "mode": 4
        }
      ]
    },
    {
      "name": "Object_2",
      "primitives": [
        {
          "attributes": {
            "NORMAL": 9,
            "POSITION": 8,
            "TEXCOORD_0": 10
          },
          "indices": 11,
          "material": 0,
          "mode": 4
        }
      ]
    },
    {
      "name": "Object_3",
      "primitives": [
        {
          "attributes": {
            "NORMAL": 13,
            "POSITION": 12,
            "TEXCOORD_0": 14
          },
          "indices": 15,
          "material": 0,
          "mode": 4
        }
      ]
    },
    {
      "name": "Object_4",
      "primitives": [
        {
          "attributes": {
            "NORMAL": 17,
            "POSITION": 16,
            "TEXCOORD_0": 18
          },
          "indices": 19,
          "material": 0,
          "mode": 4
        }
      ]
    },
    {
      "name": "Object_5",
      "primitives": [
        {
          "attributes": {
            "NORMAL": 21,
            "POSITION": 20,
            "TEXCOORD_0": 22
          },
          "indices": 23,
          "material": 0,
          "mode": 4
        }
      ]
    },
    {
      "name": "Object_6",
      "primitives": [
        {
          "attributes": {
            "NORMAL": 25,
            "POSITION": 24,
            "TEXCOORD_0": 26
          },
          "indices": 27,
          "material": 0,
          "mode": 4
        }
      ]
    }
  ],
  "nodes": [
    {
      "children": [
        1
      ],
      "matrix": [
        0.1970602930436467,
        0.0018433791376268605,
        2.383823559220686e-19,
        0.0,
        0.0018433763846059242,
        -0.1970599876418575,
        0.00034580902456415316,
        0.0,
        3.234691701710981e-06,
        -0.0003457939058908451,
        -0.19706860936929083,
        0.0,
        0.1305152326822281,
        -12.61131572723389,
        15.320746421813961,
        1.0
      ],
      "name": "Sketchfab_model"
    },
    {
      "children": [
        2,
        3,
        4,
        5,
        6,
        7,
        8
      ],
      "name": "Flora_C.obj.cleaner.materialmerger.gles"
    },
    {
      "mesh": 0,
      "name": "Object_2"
    },
    {
      "mesh": 1,
      "name": "Object_3"
    },
    {
      "mesh": 2,
      "name": "Object_4"
    },
    {
      "mesh": 3,
      "name": "Object_5"
    },
    {
      "mesh": 4,
      "name": "Object_6"
    },
    {
      "mesh": 5,
      "name": "Object_7"
    },
    {
      "mesh": 6,
      "name": "Object_8"
    }
  ],
  "samplers": [
    {
      "magFilter": 9729,
      "minFilter": 9987,
      "wrapS": 10497,
      "wrapT": 10497
    }
  ],
  "scene": 0,
  "scenes": [
    {
      "name": "Sketchfab_Scene",
      "nodes": [
        0
      ]
    }
  ],
  "textures": [
    {
      "sampler": 0,
      "source": 0
    }
  ]
}
